<svg version="1.1" id="Layer_1" xmlns="http://www.w3.org/2000/svg" xmlns:xlink="http://www.w3.org/1999/xlink" x="0px" y="0px"
	 width="100%" viewBox="0 0 256 256" enable-background="new 0 0 256 256" xml:space="preserve">
<path fill="#000101" opacity="1.000000" stroke="none" 
	d="
M1.000000,125.000000 
	C1.000000,83.333344 1.000000,42.166683 1.000000,1.000016 
	C86.333313,1.000011 171.666626,1.000011 256.999939,1.000005 
	C256.999969,86.333290 256.999969,171.666580 257.000000,256.999908 
	C171.666718,256.999939 86.333443,256.999939 1.000080,256.999969 
	C1.000000,213.166672 1.000000,169.333328 1.000000,125.000000 
M208.105270,78.256989 
	C208.184433,78.304504 208.263596,78.352013 208.342758,78.399529 
	C208.227097,78.267441 208.111450,78.135361 207.977432,77.378326 
	C207.947098,77.172134 207.916763,76.965950 207.914505,76.167412 
	C207.927567,75.773811 207.940613,75.380211 208.371384,74.589989 
	C208.493729,74.052620 208.616058,73.515259 208.950790,72.206245 
	C208.901215,71.145538 208.851624,70.084824 208.949890,68.272926 
	C208.899872,67.512352 208.849854,66.751770 208.963684,65.571594 
	C209.003952,65.250549 208.911942,64.973442 208.719482,64.496078 
	C208.719482,64.496078 208.588531,64.287544 208.565506,63.602627 
	C208.093903,62.500767 207.622314,61.398907 206.456299,58.674580 
	C204.984131,62.037777 204.102722,64.051369 203.051239,66.013275 
	C203.051239,66.013275 202.878784,65.970200 202.289474,66.287430 
	C199.113083,68.004440 196.095932,69.804916 198.099380,74.657784 
	C198.099380,74.657784 197.878494,75.005219 197.476059,75.299248 
	C197.226593,75.545204 197.094910,75.843201 196.986176,76.766167 
	C196.901627,77.141685 196.817093,77.517204 196.383179,77.919533 
	C196.383179,77.919533 196.045685,78.013756 195.538208,78.336975 
	C195.358871,78.892349 195.179550,79.447716 195.000671,80.499344 
	C195.000671,80.499344 194.984177,80.995323 194.641068,81.081879 
	C194.641068,81.081879 194.289246,81.119987 193.410950,81.052658 
	C191.947342,81.033752 190.483719,81.014839 188.721680,80.889313 
	C188.721680,80.889313 188.408798,80.839111 188.255096,80.350540 
	C188.127869,80.236717 188.000626,80.122887 187.922012,79.488770 
	C187.990891,79.328789 188.059769,79.168800 188.818817,78.849449 
	C189.176468,77.818619 189.534103,76.787781 189.939636,75.251366 
	C189.993118,74.919151 190.046585,74.586937 190.687408,73.938629 
	C191.493103,72.624413 192.298782,71.310196 193.511871,69.700943 
	C193.646744,69.401138 193.781616,69.101334 194.029694,68.177650 
	C194.691010,67.119942 195.352341,66.062233 196.812057,64.995811 
	C202.241425,63.905239 200.368744,59.385334 201.061188,55.400700 
	C201.306351,54.598724 201.551514,53.796749 202.006622,52.469177 
	C202.052139,52.097187 202.097641,51.725197 202.744690,50.921112 
	C203.165771,49.284367 203.586868,47.647621 204.432632,45.466183 
	C204.504623,45.020618 204.576614,44.575050 204.915085,43.412994 
	C205.188736,40.248653 205.462372,37.084312 205.923981,33.093914 
	C205.464401,29.885677 205.313507,26.588223 204.422379,23.504702 
	C203.935226,21.819082 202.195786,20.495384 200.271332,19.166767 
	C199.903214,20.280643 199.535095,21.394518 199.062775,22.992725 
	C198.721954,23.333277 198.381149,23.673826 197.321548,24.140623 
	C196.912064,25.171309 196.502579,26.201992 196.084213,27.868935 
	C195.672989,28.582254 195.261765,29.295576 194.465103,30.295219 
	C194.234116,30.534678 194.097992,30.819481 193.948303,31.789816 
	C193.226929,32.858387 192.505554,33.926956 191.075882,35.008511 
	C185.627594,37.513294 182.650314,42.040310 181.161301,47.596184 
	C180.893906,48.593967 181.850098,49.919685 182.110825,51.790501 
	C180.467224,54.322121 178.823624,56.853745 176.755005,58.759609 
	C175.695358,58.705208 174.209015,58.172035 173.645477,58.674286 
	C170.045731,61.882530 166.288437,65.030540 163.300232,68.771309 
	C160.936295,71.730591 158.977936,70.860970 156.394211,69.740646 
	C152.992355,68.265579 154.896866,66.273865 155.305115,64.042694 
	C155.920685,60.678574 158.068680,56.764153 153.037567,53.624016 
	C150.018646,53.821136 146.999741,54.018253 143.372452,53.792469 
	C143.246109,53.580261 143.119766,53.368050 143.052063,52.467999 
	C143.702560,51.038155 144.353043,49.608311 145.745605,48.019905 
	C146.499161,47.960789 147.252701,47.901672 148.859955,47.991104 
	C151.576172,47.641533 154.292404,47.291962 157.358521,47.629784 
	C158.883072,46.951962 160.407623,46.274143 160.757385,46.118637 
	C163.531403,46.710773 165.249817,47.077579 167.720383,47.954113 
	C169.754684,47.954113 171.788986,47.954113 173.349136,47.954113 
	C175.639648,43.242756 171.664093,44.062225 169.886826,42.259102 
	C169.218109,41.413891 168.549408,40.568680 168.018219,39.008205 
	C168.542130,36.971394 171.008774,34.232784 165.641617,33.857983 
	C164.735870,33.962494 163.830109,34.067001 162.276443,34.050167 
	C161.854492,34.116055 161.432556,34.181942 160.269821,34.138493 
	C155.162323,34.480648 149.699387,31.770432 145.038513,35.264912 
	C144.983139,34.622196 144.927765,33.979485 144.886795,32.617153 
	C144.313171,28.875685 141.832245,30.916584 139.259247,31.015652 
	C137.572647,32.340878 135.886047,33.666103 133.853928,34.292995 
	C131.475159,35.764160 129.119308,37.385674 126.817589,34.093826 
	C126.656204,33.863026 125.610458,34.250591 124.356926,34.005863 
	C122.178207,34.334492 119.999489,34.663124 117.489990,34.992622 
	C117.489990,34.992622 117.159218,34.991947 116.812714,34.363224 
	C113.200874,34.555378 109.589043,34.747536 105.300041,34.808151 
	C102.874466,34.652676 100.448898,34.497200 97.344292,34.040512 
	C96.030144,33.900951 94.657799,33.462448 93.417831,33.703869 
	C92.114777,33.957569 90.938477,34.862259 89.706787,35.482475 
	C90.705048,36.538433 91.703308,37.594387 92.094543,38.776409 
	C91.727913,39.469578 91.361290,40.162750 90.579323,41.011700 
	C90.579323,41.011700 90.137711,41.053581 89.395996,41.038311 
	C88.597527,41.734375 87.799057,42.430435 86.264114,43.114754 
	C84.857933,43.450039 83.451759,43.785324 81.757538,43.507614 
	C80.205246,43.106403 78.667282,42.629959 77.095612,42.330452 
	C76.049141,42.131031 74.954559,42.184063 73.935532,42.092823 
	C73.935532,42.092823 73.910568,42.149914 73.787720,41.678764 
	C73.638161,41.374954 73.409996,41.151356 72.841522,40.736946 
	C72.841522,40.736946 72.871475,40.361393 72.808693,39.834801 
	C72.593468,39.562737 72.378242,39.290672 71.753426,38.569679 
	C71.504807,38.038097 71.256187,37.506516 71.002823,36.276814 
	C70.551125,35.580074 70.099426,34.883331 69.770195,34.149738 
	C69.770195,34.149738 69.737862,34.273472 69.874588,33.518436 
	C69.197731,32.712124 68.520874,31.905806 67.937759,31.077093 
	C67.937759,31.077093 67.896576,31.164230 67.811371,30.701605 
	C67.687767,30.397680 67.480736,30.169432 66.934517,29.661581 
	C66.934517,29.661581 66.910805,29.224464 66.904816,28.559847 
	C66.522865,28.076202 66.140923,27.592558 65.876938,27.098064 
	C65.876938,27.098064 65.847206,27.212738 65.784317,26.729992 
	C65.666222,26.409847 65.455818,26.171017 64.895775,25.688980 
	C64.895775,25.688980 64.892807,25.274826 64.939301,24.460697 
	C64.154526,21.604797 64.904243,17.821680 60.051056,17.173073 
	C59.752052,17.070745 59.444866,17.029730 58.400436,17.138565 
	C57.957935,18.153286 57.515434,19.168007 57.054733,20.612257 
	C57.054733,20.612257 56.863708,20.997402 56.126171,21.027048 
	C53.246700,22.681967 52.209373,24.597160 55.185936,27.821196 
	C55.176247,28.548285 55.166561,29.275372 55.015640,30.908638 
	C55.228218,34.201401 55.303154,37.509941 55.678417,40.784058 
	C56.953526,51.909199 62.720047,61.249802 67.986549,70.728760 
	C70.704483,75.620659 72.421165,80.071426 67.057053,84.387184 
	C64.819542,80.130379 62.551395,75.742668 60.215343,71.391396 
	C57.864548,67.012680 55.446220,62.670208 52.954002,58.123051 
	C49.280037,64.983757 49.596100,71.259491 53.032154,77.479782 
	C55.112167,81.245247 56.888084,85.200783 59.219437,88.799606 
	C62.026314,93.132469 64.059860,97.372726 61.125885,102.879913 
	C59.011463,99.141045 57.172741,95.509544 54.946594,92.133522 
	C54.008129,90.710304 52.252522,89.825920 50.868359,88.696609 
	C50.277809,90.628952 48.819901,92.796074 49.266933,94.447548 
	C50.396759,98.621460 51.740204,103.007126 54.156242,106.508873 
	C59.701942,114.546677 63.080009,123.210579 63.810978,133.539230 
	C59.270988,145.474060 58.280651,157.614746 60.906509,170.192734 
	C63.953075,184.785950 70.416786,197.306717 81.749809,207.034653 
	C81.749809,207.034653 81.674934,207.268143 81.883972,207.903473 
	C84.230095,209.639923 86.576210,211.376373 88.981567,213.021835 
	C88.981567,213.021835 88.889236,213.078918 89.156197,213.674377 
	C90.436157,214.452209 91.716118,215.230042 93.000000,215.999390 
	C93.000000,215.999390 92.991280,216.004700 93.277153,216.539688 
	C93.841080,216.728134 94.405006,216.916580 94.973557,217.026764 
	C94.973557,217.026764 94.903946,217.062790 95.206642,217.610413 
	C95.782127,217.819885 96.357613,218.029358 97.363510,218.776779 
	C116.532867,228.274612 136.136536,229.256424 155.941254,221.180664 
	C164.120483,217.845428 172.125824,213.915192 178.578583,206.817902 
	C179.406311,205.892517 180.234039,204.967117 181.002426,204.001785 
	C181.002426,204.001785 181.041840,204.061508 181.624634,203.817749 
	C181.759598,203.213776 181.894547,202.609802 182.646942,201.735229 
	C187.004776,194.039749 192.577835,186.770538 195.458908,178.557053 
	C200.890671,163.071915 200.959961,147.178772 194.080566,130.991028 
	C194.867416,125.254639 195.911545,119.762421 199.666107,114.881691 
	C202.711884,110.922333 205.566406,106.417168 206.943069,101.698196 
	C208.052460,97.895439 206.826538,93.411392 206.088501,89.002678 
	C204.988144,87.974342 203.887802,86.946014 202.921341,85.386101 
	C202.993561,85.030373 203.065796,84.674637 203.582260,84.191849 
	C203.582260,84.191849 204.002792,84.000427 204.471115,83.667107 
	C204.591766,83.313705 204.712433,82.960297 204.863937,82.066338 
	C204.906418,81.709633 204.948914,81.352921 205.000610,80.999695 
	C205.000610,80.999695 204.994751,80.989830 205.531097,80.677940 
	C206.053314,79.788605 206.575516,78.899261 207.550446,78.000916 
	C207.550446,78.000916 208.003220,77.995773 208.105270,78.256989 
M125.024818,241.767288 
	C126.858971,241.767288 128.693130,241.767288 131.481995,241.767288 
	C131.676422,241.867203 133.026978,242.561172 135.346786,243.753174 
	C134.640778,239.018936 134.139038,235.654465 133.417053,230.813095 
	C131.131378,232.693466 129.584732,233.965866 128.466858,234.885529 
	C127.353683,234.017822 125.965019,232.935379 124.576340,231.852936 
	C123.745209,233.421478 122.637421,234.910095 122.155205,236.579437 
	C121.592728,238.526672 121.576843,240.631821 121.277161,243.043640 
	C122.674149,242.848328 123.754555,242.697281 125.024818,241.767288 
M89.989799,233.334930 
	C95.123169,237.401352 100.525192,236.413406 100.843529,231.127594 
	C100.967491,229.069260 99.698074,226.168442 98.085304,224.991013 
	C96.655060,223.946838 93.509270,224.037704 91.762543,224.911041 
	C88.731407,226.426590 88.254211,229.488785 89.989799,233.334930 
M156.233505,232.316742 
	C157.172989,234.191284 158.112473,236.065826 159.318039,238.471268 
	C161.212982,235.297821 163.231598,232.772797 164.284180,229.894501 
	C165.190933,227.415054 162.052979,224.821671 159.423965,225.581177 
	C157.771637,226.058517 156.231888,226.925568 154.513260,227.673676 
	C155.116150,229.245895 155.572159,230.435059 156.233505,232.316742 
M183.060410,210.009583 
	C181.736053,210.890106 179.678574,211.532532 179.293503,212.718140 
	C178.908432,213.903763 179.883423,215.881424 180.825195,217.063248 
	C182.143051,218.716965 183.982559,219.955002 186.368393,222.044968 
	C187.405136,220.566437 189.483841,218.795410 189.704224,216.817383 
	C189.826462,215.720062 186.756699,214.367172 185.299149,212.950943 
	C184.587311,212.259262 184.272232,211.159256 183.060410,210.009583 
M67.066948,216.863571 
	C68.417900,216.543259 69.768860,216.222961 71.193840,215.885101 
	C69.726646,213.930450 68.792931,212.890396 68.196777,211.683563 
	C68.101898,211.491501 69.726753,209.919693 70.206528,210.074020 
	C71.612312,210.526154 72.841469,211.527451 75.758018,213.293518 
	C75.006371,210.558044 74.903259,207.910294 74.094116,207.673325 
	C71.859482,207.018875 68.727379,206.436691 67.042900,207.521988 
	C63.590694,209.746231 63.881023,213.234131 67.066948,216.863571 
M51.619274,86.441917 
	C51.123592,86.884254 50.627907,87.326591 50.132229,87.768929 
	C50.572933,88.114243 51.013638,88.459564 51.454334,88.804886 
	C51.627789,88.292664 51.801243,87.780441 51.619274,86.441917 
M194.515244,25.425026 
	C194.515244,25.425026 194.569901,25.521667 194.515244,25.425026 
z"/>
<path fill="#EEF3FC" opacity="1.000000" stroke="none" 
	d="
M177.180008,59.385361 
	C178.823624,56.853745 180.467224,54.322121 182.471680,51.277195 
	C185.816422,45.507771 188.800308,40.251652 191.784195,34.995529 
	C192.505554,33.926956 193.226929,32.858387 194.261520,31.379539 
	C194.666687,30.649141 194.758621,30.329020 194.850555,30.008898 
	C195.261765,29.295576 195.672989,28.582254 196.394104,27.403370 
	C197.149429,25.963329 197.594879,24.988853 198.040329,24.014376 
	C198.381149,23.673826 198.721954,23.333277 199.400391,22.561262 
	C200.165695,21.089357 200.593384,20.048918 201.021057,19.008476 
	C202.195786,20.495384 203.935226,21.819082 204.422379,23.504702 
	C205.313507,26.588223 205.464401,29.885677 205.550446,33.688686 
	C203.406021,37.505859 201.635132,40.728260 199.576065,44.123466 
	C198.162262,46.508987 197.036621,48.721706 195.641830,51.100067 
	C194.885635,52.167553 194.398590,53.069397 193.667206,54.157372 
	C192.956299,55.256531 192.489716,56.169563 191.747833,57.273300 
	C189.294830,61.626873 187.117126,65.789742 184.958710,69.975716 
	C184.978012,69.998817 184.950317,69.953270 184.666321,70.097626 
	C183.911957,71.156113 183.441574,72.070244 182.983459,72.993927 
	C182.995728,73.003487 182.983612,72.977036 182.712433,73.173210 
	C181.290359,75.577560 180.139481,77.785736 178.994003,79.997421 
	C178.999390,80.000916 178.996475,79.990074 178.786316,80.098267 
	C178.311432,80.401596 178.139893,80.658882 177.882507,81.274155 
	C175.994827,84.599701 174.077194,87.537071 172.678070,90.703537 
	C172.100494,92.010681 172.079834,94.113342 172.749268,95.338844 
	C181.467636,111.298988 179.302643,127.594101 166.184296,140.275726 
	C155.101227,150.989838 143.675446,161.348862 132.499496,171.968323 
	C131.323944,173.085358 130.153458,174.878723 130.105240,176.394089 
	C129.904770,182.692688 130.135361,189.005005 129.967926,195.563721 
	C127.838181,194.498734 125.820442,193.331635 124.079330,191.841354 
	C113.675377,182.936188 103.335175,173.956512 92.841415,164.702026 
	C91.175751,163.144073 89.642250,161.885925 88.040268,160.437164 
	C87.787636,160.020142 87.549652,159.909637 87.084930,159.606293 
	C85.836304,158.529984 84.760605,157.762421 82.723892,156.309128 
	C83.672203,161.341171 84.374512,165.067841 84.911545,169.056870 
	C84.191078,169.540344 83.635902,169.761459 83.005768,169.599060 
	C83.245811,160.515945 74.534630,160.996780 69.840309,156.748444 
	C72.820343,155.134613 75.461205,153.704453 77.017052,152.861893 
	C72.594543,145.982742 68.372932,139.416077 64.151321,132.849411 
	C63.080009,123.210579 59.701942,114.546677 54.156242,106.508873 
	C51.740204,103.007126 50.396759,98.621460 49.266933,94.447548 
	C48.819901,92.796074 50.277809,90.628952 50.868359,88.696609 
	C52.252522,89.825920 54.008129,90.710304 54.946594,92.133522 
	C57.172741,95.509544 59.011463,99.141045 61.125885,102.879913 
	C64.059860,97.372726 62.026314,93.132469 59.219437,88.799606 
	C56.888084,85.200783 55.112167,81.245247 53.032154,77.479782 
	C49.596100,71.259491 49.280037,64.983757 52.954002,58.123051 
	C55.446220,62.670208 57.864548,67.012680 60.215343,71.391396 
	C62.551395,75.742668 64.819542,80.130379 67.057053,84.387184 
	C72.421165,80.071426 70.704483,75.620659 67.986549,70.728760 
	C62.720047,61.249802 56.953526,51.909199 55.678417,40.784058 
	C55.303154,37.509941 55.228218,34.201401 55.378365,30.620930 
	C61.689331,41.285938 67.688156,52.211578 73.570732,63.199451 
	C78.811157,72.987877 83.922958,82.845177 88.626785,91.788467 
	C86.911247,95.509064 85.417412,98.748825 83.666000,102.246841 
	C78.820786,114.029213 80.073006,125.312004 88.012077,134.407867 
	C96.148575,143.729935 105.933884,151.621948 115.091576,160.037537 
	C117.520935,162.270050 120.296028,164.126358 122.912376,166.155380 
	C123.458214,165.738327 124.004051,165.321259 124.549896,164.904190 
	C120.720444,156.419327 116.890991,147.934464 113.376602,139.277863 
	C117.827019,132.451096 121.962379,125.796059 126.366852,118.990135 
	C126.885429,118.279076 127.134903,117.718903 127.300392,117.156242 
	C127.216408,117.153748 127.279083,117.309662 127.526367,117.150345 
	C128.205963,116.343307 128.638275,115.695595 129.041809,115.022499 
	C129.013046,114.997124 129.044189,115.067184 129.293243,115.089615 
	C129.705429,115.388725 129.868576,115.665405 130.002151,116.413597 
	C129.972580,134.218796 129.972580,151.552490 129.972580,168.886169 
	C133.253418,163.747391 135.506363,158.425461 138.106766,153.279099 
	C140.545090,148.453491 143.351059,143.813644 146.225098,138.845001 
	C150.958694,133.885971 155.462463,129.173996 160.066971,124.356636 
	C157.961807,122.342812 156.675140,121.111969 155.292114,119.665817 
	C155.195755,119.450508 154.986176,119.027710 154.989838,118.661476 
	C154.995285,117.562828 154.997070,116.830414 155.346375,115.962570 
	C163.816284,113.254341 164.582687,111.355286 160.536850,103.703262 
	C160.081131,102.841339 159.594208,101.932838 158.907074,101.267715 
	C156.510757,98.948135 156.038208,96.314331 157.563660,93.066177 
	C164.272736,81.686455 170.726379,70.535904 177.180008,59.385361 
z"/>
<path fill="#AECEF7" opacity="1.000000" stroke="none" 
	d="
M130.207779,195.312286 
	C130.135361,189.005005 129.904770,182.692688 130.105240,176.394089 
	C130.153458,174.878723 131.323944,173.085358 132.499496,171.968323 
	C143.675446,161.348862 155.101227,150.989838 166.184296,140.275726 
	C179.302643,127.594101 181.467636,111.298988 172.749268,95.338844 
	C172.079834,94.113342 172.100494,92.010681 172.678070,90.703537 
	C174.077194,87.537071 175.994827,84.599701 178.087341,81.162224 
	C178.724380,80.553329 178.899460,80.298531 178.996475,79.990074 
	C178.996475,79.990074 178.999390,80.000916 179.343124,79.941620 
	C180.785782,77.580566 181.884689,75.278801 182.983612,72.977036 
	C182.983612,72.977036 182.995728,73.003487 183.331375,72.941528 
	C184.094788,71.904129 184.522552,70.928703 184.950317,69.953270 
	C184.950317,69.953270 184.978012,69.998817 185.311401,69.934952 
	C187.775299,65.610443 194.127029,63.455173 192.023132,57.082596 
	C192.489716,56.169563 192.956299,55.256531 194.030533,54.161224 
	C196.890945,53.728531 197.741837,52.892044 195.910980,50.934425 
	C197.036621,48.721706 198.162262,46.508987 200.057861,44.141575 
	C202.101410,44.034416 203.375015,44.081955 204.648605,44.129486 
	C204.576614,44.575050 204.504623,45.020618 203.837921,45.822952 
	C202.876511,47.904213 202.509827,49.628708 202.143143,51.353203 
	C202.097641,51.725197 202.052139,52.097187 201.552216,52.825974 
	C200.783173,54.261826 200.468536,55.340885 200.159653,56.593384 
	C200.165421,56.766819 199.907089,56.998608 199.533798,57.010830 
	C198.099060,59.329063 197.037598,61.635078 195.989197,63.960945 
	C196.002243,63.980801 195.954803,63.985577 195.582062,63.999527 
	C191.725830,66.539001 189.715988,69.799721 190.100067,74.254730 
	C190.046585,74.586937 189.993118,74.919151 189.621918,75.650574 
	C188.912354,77.036133 188.520508,78.022469 188.128647,79.008812 
	C188.059769,79.168800 187.990891,79.328789 187.770477,79.895477 
	C187.882233,80.481163 188.145523,80.660133 188.408798,80.839111 
	C188.408798,80.839111 188.721680,80.889313 188.854721,81.186646 
	C188.987762,81.483971 189.011978,81.972557 189.021713,82.275215 
	C189.362198,83.049202 189.692963,83.520523 190.295258,84.169769 
	C191.263824,84.599083 191.960846,84.850479 192.800003,85.441704 
	C193.817184,85.706154 194.692230,85.630768 195.567291,85.555382 
	C195.018372,84.697701 194.469467,83.840019 193.959747,82.667892 
	C194.095703,81.942291 194.192474,81.531136 194.289246,81.119987 
	C194.289246,81.119987 194.641068,81.081879 195.045944,80.886627 
	C195.593567,80.357841 195.736328,80.024307 195.901260,79.409012 
	C195.964188,78.756081 196.004929,78.384918 196.045685,78.013756 
	C196.045685,78.013756 196.383179,77.919533 196.933487,77.882690 
	C197.990524,76.566597 198.497253,75.287346 199.087402,73.707520 
	C199.741806,72.589035 200.312790,71.771126 201.221161,70.934250 
	C201.973022,69.917496 202.387527,68.919716 202.857529,67.596039 
	C202.901611,66.836838 202.890198,66.403519 202.878784,65.970200 
	C202.878784,65.970200 203.051239,66.013275 203.526306,65.957596 
	C205.530411,65.363792 207.059479,64.825668 208.588531,64.287544 
	C208.588531,64.287544 208.719482,64.496078 208.568542,64.820160 
	C208.373627,65.503792 208.501038,65.786102 208.799835,65.991196 
	C208.849854,66.751770 208.899872,67.512352 208.659821,68.875732 
	C208.492630,70.644989 208.615524,71.811440 208.738403,72.977890 
	C208.616058,73.515259 208.493729,74.052620 207.793915,74.845230 
	C206.475876,77.063591 205.735321,79.026711 204.994751,80.989830 
	C204.994751,80.989830 205.000610,80.999695 204.635254,81.071655 
	C203.892593,82.202049 203.515305,83.260475 203.138031,84.318909 
	C203.065796,84.674637 202.993561,85.030373 202.555847,85.812843 
	C199.999954,89.818741 197.809555,93.397896 195.346039,97.060150 
	C195.325714,99.090408 195.578506,101.037582 195.904755,103.323380 
	C196.073212,103.959229 196.146240,104.266411 196.274399,104.548569 
	C196.323059,104.655739 196.498535,104.705315 196.616211,104.781143 
	C199.956360,99.597298 203.296524,94.413452 206.636688,89.229614 
	C206.826538,93.411392 208.052460,97.895439 206.943069,101.698196 
	C205.566406,106.417168 202.711884,110.922333 199.666107,114.881691 
	C195.911545,119.762421 194.867416,125.254639 193.772217,131.610016 
	C189.310486,138.809036 185.157074,145.389084 180.814667,152.172150 
	C178.658112,153.668793 176.690552,154.962402 174.485352,156.452606 
	C172.359055,158.254715 170.445663,159.832123 168.585800,161.470322 
	C155.786880,172.743881 142.999130,184.030121 130.207779,195.312286 
z"/>
<path fill="#020306" opacity="1.000000" stroke="none" 
	d="
M176.967499,59.072487 
	C170.726379,70.535904 164.272736,81.686455 157.246552,92.833557 
	C138.110779,84.672607 119.571777,85.376877 100.874313,92.679413 
	C97.058144,85.701782 93.364853,79.055809 89.793221,72.345085 
	C84.444450,62.295303 79.181160,52.200031 73.881516,42.124104 
	C74.954559,42.184063 76.049141,42.131031 77.095612,42.330452 
	C78.667282,42.629959 80.205246,43.106403 81.870377,44.230614 
	C82.441933,50.678730 86.299950,47.141315 89.560890,46.878803 
	C88.707458,45.628036 87.854019,44.377266 87.000580,43.126495 
	C87.799057,42.430435 88.597527,41.734375 89.707001,41.471378 
	C89.974190,48.071701 90.480858,48.532410 96.597961,47.899399 
	C97.392418,47.817188 98.188438,47.750153 99.385559,47.849758 
	C101.927673,47.350452 104.067963,46.677475 106.341400,46.009041 
	C106.474556,46.013580 106.740913,46.005726 106.896049,46.380638 
	C109.340355,47.160103 111.629517,47.564655 114.216629,47.969063 
	C114.713150,47.964821 114.911736,47.960728 115.520752,47.979031 
	C117.870590,47.367275 120.531693,45.603645 121.621155,46.299755 
	C125.745857,48.935215 127.715981,48.941952 130.005646,45.391209 
	C132.199692,46.533943 134.372452,47.369820 136.620102,47.867130 
	C136.871613,47.922775 137.548019,46.057884 138.403137,45.113091 
	C139.750946,48.415699 142.457809,48.131908 145.003540,48.178474 
	C144.353043,49.608311 143.702560,51.038155 142.593933,52.752762 
	C140.530807,53.113297 138.925797,53.189068 136.900436,53.284687 
	C137.059250,55.061520 137.187424,56.495724 137.423828,59.140697 
	C139.522583,55.898472 141.034576,52.253750 143.126678,57.518715 
	C143.795151,57.031376 144.463608,56.544033 145.444458,56.251534 
	C147.138046,57.622097 148.477661,59.727810 149.908569,59.791798 
	C153.580292,59.955990 153.636673,56.856686 153.675018,54.118626 
	C158.068680,56.764153 155.920685,60.678574 155.305115,64.042694 
	C154.896866,66.273865 152.992355,68.265579 156.394211,69.740646 
	C158.977936,70.860970 160.936295,71.730591 163.300232,68.771309 
	C166.288437,65.030540 170.045731,61.882530 173.645477,58.674286 
	C174.209015,58.172035 175.695358,58.705208 176.967499,59.072487 
M111.255600,73.778748 
	C108.958778,73.760979 106.647476,73.625092 104.386803,73.902214 
	C104.152336,73.930946 104.218758,76.414253 104.107712,78.454124 
	C107.604576,77.723572 110.281082,77.164406 113.616096,77.095642 
	C115.600830,77.434677 117.585564,77.773705 119.642754,78.125114 
	C119.782066,72.471832 117.906967,71.677361 111.255600,73.778748 
M115.511269,63.642601 
	C113.469612,63.397694 111.427963,63.152786 109.164948,62.881329 
	C109.164948,65.310532 109.164948,67.085159 109.164948,69.271271 
	C111.597786,68.306679 113.787086,67.438637 116.822243,66.531204 
	C119.393066,67.153900 121.963882,67.776604 124.510910,68.393539 
	C125.757263,63.764923 123.833694,62.644852 120.583862,63.034843 
	C119.019089,63.222626 117.511856,63.889812 115.511269,63.642601 
M139.300232,73.845123 
	C138.660202,74.794968 138.020157,75.744820 137.824692,76.034912 
	C138.424286,76.290054 139.215866,76.626892 140.559601,77.473175 
	C142.033997,77.543510 143.508408,77.613853 145.562607,77.758240 
	C146.044464,77.439491 146.526321,77.120750 147.750900,77.035164 
	C149.738022,77.366371 151.725128,77.697578 153.596680,78.009521 
	C153.596680,75.975494 153.596680,74.666618 153.596680,72.800705 
	C149.007019,73.061317 144.428131,73.321320 139.300232,73.845123 
M148.599060,63.298096 
	C144.763046,63.190845 140.911682,62.859226 137.100861,63.120049 
	C136.028610,63.193432 134.086304,65.744492 134.211655,65.912247 
	C137.675751,70.548035 142.668564,66.184044 146.826401,67.900940 
	C148.999603,68.798325 150.247040,67.446274 149.900604,64.469452 
	C149.608154,64.289146 149.315720,64.108849 148.599060,63.298096 
M112.119736,53.053539 
	C111.048325,53.046349 109.976326,53.059612 108.905617,53.028309 
	C104.968628,52.913219 104.448296,53.799946 106.092834,57.851662 
	C107.009384,56.804783 107.925934,55.757904 109.159576,54.348835 
	C109.801048,56.040661 110.160324,56.988205 110.736115,58.506802 
	C111.595131,56.947365 112.150513,55.939137 112.859344,54.652340 
	C113.815353,56.057198 114.506485,57.072823 115.197624,58.088451 
	C115.715599,57.685638 116.233574,57.282822 116.751556,56.880009 
	C115.503143,55.591599 114.254730,54.303188 112.119736,53.053539 
M121.555344,58.016273 
	C125.423279,58.456181 125.446533,56.342667 124.220924,52.164314 
	C121.652512,53.312565 119.315033,54.357578 116.977547,55.402580 
	C118.211746,56.273540 119.445938,57.144501 121.555344,58.016273 
M126.022316,66.327690 
	C128.219391,66.995003 130.416458,67.662315 133.261215,68.526352 
	C132.970642,65.814140 132.823532,64.441086 132.524368,61.648636 
	C129.810135,63.218624 127.860947,64.346077 126.022316,66.327690 
M130.270203,56.062298 
	C130.938202,56.686710 131.606186,57.311123 132.743515,58.374252 
	C132.743515,55.940670 132.743515,54.137684 132.743515,51.347466 
	C129.774231,55.813766 128.100586,53.862255 126.256264,51.168587 
	C126.256264,53.357510 126.256264,55.546429 126.256264,57.920773 
	C127.413803,57.234402 128.436691,56.627872 130.270203,56.062298 
z"/>
<path fill="#38A5EA" opacity="1.000000" stroke="none" 
	d="
M177.948364,206.814545 
	C172.125824,213.915192 164.120483,217.845428 155.941254,221.180664 
	C136.136536,229.256424 116.532867,228.274612 97.009201,218.220276 
	C96.071236,217.463440 95.487595,217.263107 94.903946,217.062790 
	C94.903946,217.062790 94.973557,217.026764 94.817703,216.804764 
	C94.104988,216.390076 93.548134,216.197388 92.991280,216.004700 
	C92.991280,216.004700 93.000000,215.999390 92.954277,215.643341 
	C91.568779,214.551163 90.229004,213.815048 88.889236,213.078918 
	C88.889236,213.078918 88.981567,213.021835 88.974823,212.650055 
	C88.968086,210.716965 88.968086,209.155655 88.968086,207.740265 
	C86.095421,207.554306 83.885178,207.411224 81.674934,207.268143 
	C81.674934,207.268143 81.749809,207.034653 81.938354,206.876160 
	C82.930336,205.990936 83.733788,205.264236 84.631073,204.565140 
	C84.724907,204.592758 84.827438,204.753082 85.224960,204.792084 
	C88.036797,203.678284 90.451111,202.525497 93.172226,201.180298 
	C96.334129,199.892090 99.189217,198.796295 102.424667,197.720184 
	C107.224815,199.408142 111.644600,201.076431 116.419357,202.880554 
	C124.957024,203.536469 126.003670,211.153793 129.150696,216.164459 
	C131.939224,212.048538 133.783951,207.315674 137.239944,204.771851 
	C140.932236,202.054047 146.145050,201.401947 151.120483,199.884521 
	C154.068649,199.579605 156.590469,199.238297 159.071350,198.914734 
	C159.030396,198.932449 159.049179,198.845215 159.227066,199.155365 
	C164.460938,201.257797 169.516937,203.050049 174.672577,204.766418 
	C174.772217,204.690506 175.007278,204.777176 175.152649,205.050919 
	C176.181473,205.821289 177.064911,206.317917 177.948364,206.814545 
z"/>
<path fill="#3AA6E9" opacity="1.000000" stroke="none" 
	d="
M181.003662,151.969116 
	C185.157074,145.389084 189.310486,138.809036 193.756561,132.006302 
	C200.959961,147.178772 200.890671,163.071915 195.458908,178.557053 
	C192.577835,186.770538 187.004776,194.039749 182.086517,202.041626 
	C181.364670,202.919174 181.203247,203.490341 181.041840,204.061508 
	C181.041840,204.061508 181.002426,204.001785 180.646255,204.009033 
	C179.518204,204.025101 178.746323,204.033920 177.727356,203.779602 
	C176.274414,200.343964 175.068558,197.171463 173.850433,193.632156 
	C172.562668,190.169601 171.287125,187.073853 169.999481,183.726746 
	C169.938019,183.315063 169.888641,183.154724 169.916992,182.632477 
	C171.749359,177.736420 173.700104,173.266068 175.201477,168.649567 
	C176.602295,164.342392 178.690155,161.049454 183.362869,159.755539 
	C185.305420,159.217621 187.050583,157.966797 189.496887,156.731415 
	C186.119949,154.837906 183.561798,153.403519 181.003662,151.969116 
z"/>
<path fill="#3AA5E9" opacity="1.000000" stroke="none" 
	d="
M84.537231,204.537521 
	C83.733788,205.264236 82.930336,205.990936 81.880363,206.984177 
	C70.416786,197.306717 63.953075,184.785950 60.906509,170.192734 
	C58.280651,157.614746 59.270988,145.474060 63.981148,133.194321 
	C68.372932,139.416077 72.594543,145.982742 77.017052,152.861893 
	C75.461205,153.704453 72.820343,155.134613 69.840309,156.748444 
	C74.534630,160.996780 83.245811,160.515945 83.011864,169.965240 
	C85.017822,174.492264 86.942741,178.269562 88.862823,182.426544 
	C86.233162,190.014587 83.608353,197.222977 80.810181,204.907440 
	C82.618828,204.727936 83.578033,204.632721 84.537231,204.537521 
z"/>
<path fill="#ADCBF1" opacity="1.000000" stroke="none" 
	d="
M73.908524,42.108463 
	C79.181160,52.200031 84.444450,62.295303 89.793221,72.345085 
	C93.364853,79.055809 97.058144,85.701782 100.735733,92.671799 
	C100.774467,92.966866 100.523323,93.085091 100.222755,93.168716 
	C99.280266,94.646576 98.638351,96.040825 97.661705,98.162079 
	C95.423607,96.144241 93.586487,94.487923 91.819237,92.894592 
	C88.009361,100.849129 88.009361,100.849129 83.923576,101.988594 
	C85.417412,98.748825 86.911247,95.509064 88.626785,91.788467 
	C83.922958,82.845177 78.811157,72.987877 73.570732,63.199451 
	C67.688156,52.211578 61.689331,41.285938 55.448978,30.167841 
	C55.166561,29.275372 55.176247,28.548285 55.504059,27.220760 
	C56.169353,24.746017 56.516529,22.871710 56.863708,20.997402 
	C56.863708,20.997402 57.054733,20.612257 57.355240,20.250874 
	C58.146992,18.943001 58.638241,17.996511 59.129490,17.050022 
	C59.444866,17.029730 59.752052,17.070745 60.389179,17.517170 
	C62.115803,20.332455 63.504303,22.803640 64.892807,25.274826 
	C64.892807,25.274826 64.895775,25.688980 64.998917,26.114380 
	C65.350441,26.764099 65.598824,26.988419 65.847206,27.212738 
	C65.847206,27.212738 65.876938,27.098064 65.858047,27.424658 
	C66.196365,28.242323 66.553589,28.733393 66.910805,29.224464 
	C66.910805,29.224464 66.934517,29.661581 67.040459,30.095379 
	C67.396461,30.740864 67.646515,30.952547 67.896576,31.164230 
	C67.896576,31.164230 67.937759,31.077093 67.915009,31.411245 
	C68.507462,32.588089 69.122658,33.430779 69.737862,34.273472 
	C69.737862,34.273472 69.770195,34.149738 69.764641,34.486713 
	C70.175247,35.540771 70.591408,36.257854 71.007568,36.974937 
	C71.256187,37.506516 71.504807,38.038097 71.948639,39.071861 
	C72.386398,39.836491 72.628937,40.098942 72.871475,40.361393 
	C72.871475,40.361393 72.841522,40.736946 72.966003,41.139484 
	C73.363846,41.744652 73.637207,41.947285 73.910568,42.149914 
	C73.910568,42.149914 73.935532,42.092823 73.908524,42.108463 
z"/>
<path fill="#06070C" opacity="1.000000" stroke="none" 
	d="
M106.740913,46.005730 
	C106.740913,46.005726 106.474556,46.013580 106.240730,45.610996 
	C104.183083,40.617500 101.467949,43.458336 98.607391,44.482407 
	C95.998985,43.001766 92.264641,44.310940 90.994659,40.855919 
	C91.361290,40.162750 91.727913,39.469578 92.743317,38.752548 
	C94.935242,38.383507 96.478401,38.038326 98.374352,37.786018 
	C101.147369,37.596874 103.567596,37.314854 106.118652,37.362442 
	C109.662704,37.431335 113.075912,37.170624 116.889183,36.879353 
	C116.887878,36.888454 117.023544,35.940201 117.159218,34.991947 
	C117.159218,34.991947 117.489990,34.992622 117.725945,35.393280 
	C118.053818,37.145252 118.145737,38.496563 118.229370,39.726025 
	C120.704964,38.977753 122.841797,38.331875 125.383095,37.548176 
	C128.856812,37.526531 133.080002,41.655415 134.199432,34.991325 
	C135.886047,33.666103 137.572647,32.340878 139.632263,31.444160 
	C140.030365,32.451500 140.055450,33.030334 139.753036,33.772652 
	C138.803329,35.352871 138.181107,36.769608 137.014755,39.425266 
	C140.763412,38.608692 142.877625,38.148144 145.395370,37.655548 
	C148.287689,37.670551 150.801071,37.954571 153.258575,37.699787 
	C155.854874,37.430614 158.397934,36.647961 161.013977,36.505646 
	C160.715271,42.297211 164.990067,39.096287 166.815155,40.415623 
	C165.534454,41.554192 164.428238,42.393250 162.953995,43.162525 
	C160.383743,43.491631 158.181503,43.890526 155.655090,44.103226 
	C152.866669,44.223156 150.402435,44.529274 147.520752,44.889145 
	C144.341614,42.934181 141.553268,41.258469 138.088379,43.982330 
	C135.175522,43.893776 132.566101,44.068737 129.821106,43.935982 
	C126.939667,45.371540 124.749741,45.778740 121.485718,43.575550 
	C118.079628,41.276451 115.106552,43.773136 115.110329,47.956631 
	C114.911736,47.960728 114.713150,47.964821 114.258270,47.571014 
	C113.196777,45.831535 112.110893,43.260162 111.636620,43.368416 
	C109.894806,43.765976 108.356079,45.053280 106.740913,46.005730 
z"/>
<path fill="#E1E4EB" opacity="1.000000" stroke="none" 
	d="
M124.929893,242.156769 
	C123.754555,242.697281 122.674149,242.848328 121.277161,243.043640 
	C121.576843,240.631821 121.592728,238.526672 122.155205,236.579437 
	C122.637421,234.910095 123.745209,233.421478 124.576340,231.852936 
	C125.965019,232.935379 127.353683,234.017822 128.466858,234.885529 
	C129.584732,233.965866 131.131378,232.693466 133.417053,230.813095 
	C134.139038,235.654465 134.640778,239.018936 135.346786,243.753174 
	C133.026978,242.561172 131.676422,241.867203 131.481995,241.767288 
	C128.693130,241.767288 126.858971,241.767288 124.929893,242.156769 
z"/>
<path fill="#DCDDE4" opacity="1.000000" stroke="none" 
	d="
M89.767197,233.001923 
	C88.254211,229.488785 88.731407,226.426590 91.762543,224.911041 
	C93.509270,224.037704 96.655060,223.946838 98.085304,224.991013 
	C99.698074,226.168442 100.967491,229.069260 100.843529,231.127594 
	C100.525192,236.413406 95.123169,237.401352 89.767197,233.001923 
z"/>
<path fill="#070C1A" opacity="1.000000" stroke="none" 
	d="
M195.619171,96.977058 
	C197.809555,93.397896 199.999954,89.818741 202.488907,86.078636 
	C203.887802,86.946014 204.988144,87.974342 206.362595,89.116142 
	C203.296524,94.413452 199.956360,99.597298 196.616211,104.781143 
	C196.498535,104.705315 196.323059,104.655739 196.274399,104.548569 
	C196.146240,104.266411 196.073212,103.959229 195.980804,102.898766 
	C195.861984,100.416031 195.740585,98.696541 195.619171,96.977058 
z"/>
<path fill="#E0E1E7" opacity="1.000000" stroke="none" 
	d="
M156.130829,231.970490 
	C155.572159,230.435059 155.116150,229.245895 154.513260,227.673676 
	C156.231888,226.925568 157.771637,226.058517 159.423965,225.581177 
	C162.052979,224.821671 165.190933,227.415054 164.284180,229.894501 
	C163.231598,232.772797 161.212982,235.297821 159.318039,238.471268 
	C158.112473,236.065826 157.172989,234.191284 156.130829,231.970490 
z"/>
<path fill="#E2E3E7" opacity="1.000000" stroke="none" 
	d="
M183.418976,210.126831 
	C184.272232,211.159256 184.587311,212.259262 185.299149,212.950943 
	C186.756699,214.367172 189.826462,215.720062 189.704224,216.817383 
	C189.483841,218.795410 187.405136,220.566437 186.368393,222.044968 
	C183.982559,219.955002 182.143051,218.716965 180.825195,217.063248 
	C179.883423,215.881424 178.908432,213.903763 179.293503,212.718140 
	C179.678574,211.532532 181.736053,210.890106 183.418976,210.126831 
z"/>
<path fill="#E1E2E7" opacity="1.000000" stroke="none" 
	d="
M66.759048,216.630737 
	C63.881023,213.234131 63.590694,209.746231 67.042900,207.521988 
	C68.727379,206.436691 71.859482,207.018875 74.094116,207.673325 
	C74.903259,207.910294 75.006371,210.558044 75.758018,213.293518 
	C72.841469,211.527451 71.612312,210.526154 70.206528,210.074020 
	C69.726753,209.919693 68.101898,211.491501 68.196777,211.683563 
	C68.792931,212.890396 69.726646,213.930450 71.193840,215.885101 
	C69.768860,216.222961 68.417900,216.543259 66.759048,216.630737 
z"/>
<path fill="#020305" opacity="1.000000" stroke="none" 
	d="
M191.430038,35.002022 
	C188.800308,40.251652 185.816422,45.507771 182.536942,50.928940 
	C181.850098,49.919685 180.893906,48.593967 181.161301,47.596184 
	C182.650314,42.040310 185.627594,37.513294 191.430038,35.002022 
z"/>
<path fill="#D0D2D4" opacity="1.000000" stroke="none" 
	d="
M160.964249,36.089615 
	C158.397934,36.647961 155.854874,37.430614 153.258575,37.699787 
	C150.801071,37.954571 148.287689,37.670551 145.392334,37.359543 
	C145.001984,36.701256 145.018188,36.306927 145.034393,35.912598 
	C149.699387,31.770432 155.162323,34.480648 160.645294,34.500366 
	C161.001907,35.271362 160.983078,35.680485 160.964249,36.089615 
z"/>
<path fill="#D5D6DC" opacity="1.000000" stroke="none" 
	d="
M153.356293,53.871323 
	C153.636673,56.856686 153.580292,59.955990 149.908569,59.791798 
	C148.477661,59.727810 147.138046,57.622097 145.229065,56.157104 
	C144.461136,55.317017 144.220978,54.766197 143.980820,54.215378 
	C146.999741,54.018253 150.018646,53.821136 153.356293,53.871323 
z"/>
<path fill="#E2E3E7" opacity="1.000000" stroke="none" 
	d="
M90.786987,40.933807 
	C92.264641,44.310940 95.998985,43.001766 98.569580,44.812485 
	C98.933914,45.909607 98.958824,46.792847 98.983734,47.676090 
	C98.188438,47.750153 97.392418,47.817188 96.597961,47.899399 
	C90.480858,48.532410 89.974190,48.071701 90.077858,41.479012 
	C90.137711,41.053581 90.579323,41.011700 90.786987,40.933807 
z"/>
<path fill="#C5C8CC" opacity="1.000000" stroke="none" 
	d="
M98.021553,37.693146 
	C96.478401,38.038326 94.935242,38.383507 93.046829,38.689518 
	C91.703308,37.594387 90.705048,36.538433 89.706787,35.482475 
	C90.938477,34.862259 92.114777,33.957569 93.417831,33.703869 
	C94.657799,33.462448 96.030144,33.900951 97.691345,34.526314 
	C98.032784,35.905788 98.027168,36.799465 98.021553,37.693146 
z"/>
<path fill="#D8DADE" opacity="1.000000" stroke="none" 
	d="
M161.013977,36.505646 
	C160.983078,35.680485 161.001907,35.271362 161.015686,34.555035 
	C161.432556,34.181942 161.854492,34.116055 162.614655,34.482941 
	C164.535049,36.613628 165.733719,36.752407 166.247101,34.105354 
	C171.008774,34.232784 168.542130,36.971394 167.709686,39.425407 
	C167.401138,39.842609 166.989624,40.116116 166.989624,40.116116 
	C164.990067,39.096287 160.715271,42.297211 161.013977,36.505646 
z"/>
<path fill="#E0E1E7" opacity="1.000000" stroke="none" 
	d="
M116.985962,34.677586 
	C117.023544,35.940201 116.887878,36.888454 116.889183,36.879353 
	C113.075912,37.170624 109.662704,37.431335 106.131546,37.013622 
	C106.001465,35.870029 105.989342,35.404861 105.977203,34.939693 
	C109.589043,34.747536 113.200874,34.555378 116.985962,34.677586 
z"/>
<path fill="#D5D6DC" opacity="1.000000" stroke="none" 
	d="
M145.036453,35.588753 
	C145.018188,36.306927 145.001984,36.701256 144.988831,37.391594 
	C142.877625,38.148144 140.763412,38.608692 137.014755,39.425266 
	C138.181107,36.769608 138.803329,35.352871 140.148499,33.701805 
	C142.205109,33.423908 143.538742,33.380341 144.872375,33.336769 
	C144.927765,33.979485 144.983139,34.622196 145.036453,35.588753 
z"/>
<path fill="#DBDEE6" opacity="1.000000" stroke="none" 
	d="
M138.391815,44.245842 
	C141.553268,41.258469 144.341614,42.934181 147.533173,45.264961 
	C147.977432,46.338863 147.991852,47.090710 148.006256,47.842556 
	C147.252701,47.901672 146.499161,47.960789 145.374573,48.099190 
	C142.457809,48.131908 139.750946,48.415699 138.403412,44.987526 
	C138.042313,44.555737 138.163605,44.360184 138.391815,44.245842 
z"/>
<path fill="#E3E5EC" opacity="1.000000" stroke="none" 
	d="
M148.433105,47.916832 
	C147.991852,47.090710 147.977432,46.338863 147.950623,45.211205 
	C150.402435,44.529274 152.866669,44.223156 155.751312,44.376137 
	C156.450684,45.537628 156.729645,46.240009 157.008606,46.942390 
	C154.292404,47.291962 151.576172,47.641533 148.433105,47.916832 
z"/>
<path fill="#E3E5EC" opacity="1.000000" stroke="none" 
	d="
M124.978630,37.685997 
	C122.841797,38.331875 120.704964,38.977753 118.229370,39.726025 
	C118.145737,38.496563 118.053818,37.145252 117.891335,35.392849 
	C119.999489,34.663124 122.178207,34.334492 124.666550,34.511890 
	C124.976990,35.907276 124.977806,36.796635 124.978630,37.685997 
z"/>
<path fill="#BDBDC2" opacity="1.000000" stroke="none" 
	d="
M157.183563,47.286087 
	C156.729645,46.240009 156.450684,45.537628 156.075500,44.562332 
	C158.181503,43.890526 160.383743,43.491631 163.183899,43.400810 
	C164.499802,44.428608 165.217773,45.148335 166.072266,46.062004 
	C166.461945,46.652096 166.715088,47.048237 166.968216,47.444382 
	C165.249817,47.077579 163.531403,46.710773 160.757385,46.118637 
	C160.407623,46.274143 158.883072,46.951962 157.183563,47.286087 
z"/>
<path fill="#DDE0E3" opacity="1.000000" stroke="none" 
	d="
M167.344299,47.699249 
	C166.715088,47.048237 166.461945,46.652096 166.094223,45.718288 
	C167.320129,44.422848 168.660629,43.665066 170.001129,42.907288 
	C171.664093,44.062225 175.639648,43.242756 173.349136,47.954113 
	C171.788986,47.954113 169.754684,47.954113 167.344299,47.699249 
z"/>
<path fill="#AFCBEE" opacity="1.000000" stroke="none" 
	d="
M204.781845,43.771240 
	C203.375015,44.081955 202.101410,44.034416 200.346024,43.968773 
	C201.635132,40.728260 203.406021,37.505859 205.456482,34.101715 
	C205.462372,37.084312 205.188736,40.248653 204.781845,43.771240 
z"/>
<path fill="#D5D6DC" opacity="1.000000" stroke="none" 
	d="
M105.638626,34.873924 
	C105.989342,35.404861 106.001465,35.870029 106.000702,36.684017 
	C103.567596,37.314854 101.147369,37.596874 98.374352,37.786018 
	C98.027168,36.799465 98.032784,35.905788 98.030853,34.676918 
	C100.448898,34.497200 102.874466,34.652676 105.638626,34.873924 
z"/>
<path fill="#D8DADC" opacity="1.000000" stroke="none" 
	d="
M86.632347,43.120628 
	C87.854019,44.377266 88.707458,45.628036 89.560890,46.878803 
	C86.299950,47.141315 82.441933,50.678730 82.014389,44.537113 
	C83.451759,43.785324 84.857933,43.450039 86.632347,43.120628 
z"/>
<path fill="#D8DADE" opacity="1.000000" stroke="none" 
	d="
M125.383095,37.548172 
	C124.977806,36.796635 124.976990,35.907276 124.976059,34.684265 
	C125.610458,34.250591 126.656204,33.863026 126.817589,34.093826 
	C129.119308,37.385674 131.475159,35.764160 134.026672,34.642159 
	C133.080002,41.655415 128.856812,37.526531 125.383095,37.548172 
z"/>
<path fill="#DCDDE4" opacity="1.000000" stroke="none" 
	d="
M143.676636,54.003922 
	C144.220978,54.766197 144.461136,55.317017 144.916687,55.962265 
	C144.463608,56.544033 143.795151,57.031376 143.126678,57.518715 
	C141.034576,52.253750 139.522583,55.898472 137.423828,59.140697 
	C137.187424,56.495724 137.059250,55.061520 136.900436,53.284687 
	C138.925797,53.189068 140.530807,53.113297 142.564636,53.096680 
	C143.119766,53.368050 143.246109,53.580261 143.676636,54.003922 
z"/>
<path fill="#3AA5E9" opacity="1.000000" stroke="none" 
	d="
M81.779449,207.585815 
	C83.885178,207.411224 86.095421,207.554306 88.968086,207.740265 
	C88.968086,209.155655 88.968086,210.716965 88.945206,212.695557 
	C86.576210,211.376373 84.230095,209.639923 81.779449,207.585815 
z"/>
<path fill="#AFCBEE" opacity="1.000000" stroke="none" 
	d="
M190.393738,74.096680 
	C189.715988,69.799721 191.725830,66.539001 195.592316,64.254501 
	C195.988098,64.665192 196.000885,64.834854 196.013672,65.004517 
	C195.352341,66.062233 194.691010,67.119942 193.712311,68.587570 
	C193.298111,69.330307 193.201294,69.663139 193.104477,69.995972 
	C192.298782,71.310196 191.493103,72.624413 190.393738,74.096680 
z"/>
<path fill="#A9C6E9" opacity="1.000000" stroke="none" 
	d="
M208.577026,63.945084 
	C207.059479,64.825668 205.530411,65.363792 203.611328,65.983444 
	C204.102722,64.051369 204.984131,62.037777 206.456299,58.674580 
	C207.622314,61.398907 208.093903,62.500767 208.577026,63.945084 
z"/>
<path fill="#060A13" opacity="1.000000" stroke="none" 
	d="
M196.412857,65.000168 
	C196.000885,64.834854 195.988098,64.665192 195.965057,64.240547 
	C195.954803,63.985577 196.002243,63.980801 196.270630,63.777542 
	C197.661697,61.382389 198.784393,59.190498 199.907089,56.998608 
	C199.907089,56.998608 200.165421,56.766819 200.380569,56.513920 
	C200.595718,56.261021 201.014267,56.048077 201.014267,56.048077 
	C200.368744,59.385334 202.241425,63.905239 196.412857,65.000168 
z"/>
<path fill="#060A13" opacity="1.000000" stroke="none" 
	d="
M202.584137,66.128815 
	C202.890198,66.403519 202.901611,66.836838 202.582031,67.743523 
	C201.795288,69.128998 201.339523,70.041100 200.883789,70.953217 
	C200.312790,71.771126 199.741806,72.589035 198.867371,73.772476 
	C198.563934,74.137993 198.118149,74.246506 198.118149,74.246506 
	C196.095932,69.804916 199.113083,68.004440 202.584137,66.128815 
z"/>
<path fill="#060A13" opacity="1.000000" stroke="none" 
	d="
M189.011978,81.972557 
	C189.011978,81.972557 188.987762,81.483971 189.003937,81.239952 
	C190.483719,81.014839 191.947342,81.033752 193.850098,81.086319 
	C194.192474,81.531136 194.095703,81.942291 193.721283,82.772430 
	C193.181717,83.828239 192.919800,84.465057 192.657883,85.101868 
	C191.960846,84.850479 191.263824,84.599083 190.285522,83.865982 
	C189.673492,82.913704 189.342728,82.443130 189.011978,81.972557 
z"/>
<path fill="#020306" opacity="1.000000" stroke="none" 
	d="
M56.494938,21.012226 
	C56.516529,22.871710 56.169353,24.746017 55.545769,26.855793 
	C52.209373,24.597160 53.246700,22.681967 56.494938,21.012226 
z"/>
<path fill="#020306" opacity="1.000000" stroke="none" 
	d="
M64.916054,24.867764 
	C63.504303,22.803640 62.115803,20.332455 60.622276,17.501841 
	C64.904243,17.821680 64.154526,21.604797 64.916054,24.867764 
z"/>
<path fill="#020305" opacity="1.000000" stroke="none" 
	d="
M169.943970,42.583191 
	C168.660629,43.665066 167.320129,44.422848 165.957672,45.524345 
	C165.217773,45.148335 164.499802,44.428608 163.551941,43.470596 
	C164.428238,42.393250 165.534454,41.554192 166.815155,40.415623 
	C166.989624,40.116116 167.401138,39.842609 167.640915,39.783039 
	C168.549408,40.568680 169.218109,41.413891 169.943970,42.583191 
z"/>
<path fill="#020305" opacity="1.000000" stroke="none" 
	d="
M144.879578,32.976959 
	C143.538742,33.380341 142.205109,33.423908 140.476013,33.538322 
	C140.055450,33.030334 140.030365,32.451500 140.000519,31.438263 
	C141.832245,30.916584 144.313171,28.875685 144.879578,32.976959 
z"/>
<path fill="#A9C6E9" opacity="1.000000" stroke="none" 
	d="
M205.262924,80.833885 
	C205.735321,79.026711 206.475876,77.063591 207.585052,75.043541 
	C207.940613,75.380211 207.927567,75.773811 207.645813,76.578957 
	C207.283981,77.330307 207.190842,77.670113 207.097717,78.009918 
	C206.575516,78.899261 206.053314,79.788605 205.262924,80.833885 
z"/>
<path fill="#47A1DC" opacity="1.000000" stroke="none" 
	d="
M177.974442,204.042740 
	C178.746323,204.033920 179.518204,204.025101 180.675934,204.028992 
	C180.234039,204.967117 179.406311,205.892517 178.263474,206.816223 
	C177.064911,206.317917 176.181473,205.821289 175.485672,205.058228 
	C176.440369,204.542099 177.207397,204.292419 177.974442,204.042740 
z"/>
<path fill="#AFCBEE" opacity="1.000000" stroke="none" 
	d="
M202.443909,51.137157 
	C202.509827,49.628708 202.876511,47.904213 203.625580,46.095299 
	C203.586868,47.647621 203.165771,49.284367 202.443909,51.137157 
z"/>
<path fill="#020305" opacity="1.000000" stroke="none" 
	d="
M165.944366,33.981667 
	C165.733719,36.752407 164.535049,36.613628 162.938599,34.543613 
	C163.830109,34.067001 164.735870,33.962494 165.944366,33.981667 
z"/>
<path fill="#3AA5E9" opacity="1.000000" stroke="none" 
	d="
M89.022720,213.376648 
	C90.229004,213.815048 91.568779,214.551163 92.952316,215.647583 
	C91.716118,215.230042 90.436157,214.452209 89.022720,213.376648 
z"/>
<path fill="#A9C6E9" opacity="1.000000" stroke="none" 
	d="
M198.108765,74.452148 
	C198.118149,74.246506 198.563934,74.137993 198.783966,74.073044 
	C198.497253,75.287346 197.990524,76.566597 197.108170,77.869286 
	C196.817093,77.517204 196.901627,77.141685 197.287476,76.378815 
	C197.685349,75.662720 197.781921,75.333969 197.878494,75.005219 
	C197.878494,75.005219 198.099380,74.657784 198.108765,74.452148 
z"/>
<path fill="#AFCBEE" opacity="1.000000" stroke="none" 
	d="
M201.037720,55.724388 
	C201.014267,56.048077 200.595718,56.261021 200.374802,56.340485 
	C200.468536,55.340885 200.783173,54.261826 201.447250,53.088768 
	C201.551514,53.796749 201.306351,54.598724 201.037720,55.724388 
z"/>
<path fill="#020306" opacity="1.000000" stroke="none" 
	d="
M69.806229,33.895954 
	C69.122658,33.430779 68.507462,32.588089 67.868134,31.422443 
	C68.520874,31.905806 69.197731,32.712124 69.806229,33.895954 
z"/>
<path fill="#A9C6E9" opacity="1.000000" stroke="none" 
	d="
M203.360138,84.255379 
	C203.515305,83.260475 203.892593,82.202049 204.630646,81.069916 
	C204.948914,81.352921 204.906418,81.709633 204.594177,82.482788 
	C204.217224,83.266304 204.110016,83.633369 204.002792,84.000427 
	C204.002792,84.000427 203.582260,84.191849 203.360138,84.255379 
z"/>
<path fill="#060A13" opacity="1.000000" stroke="none" 
	d="
M188.473724,78.929131 
	C188.520508,78.022469 188.912354,77.036133 189.597961,75.903366 
	C189.534103,76.787781 189.176468,77.818619 188.473724,78.929131 
z"/>
<path fill="#020305" opacity="1.000000" stroke="none" 
	d="
M197.680939,24.077499 
	C197.594879,24.988853 197.149429,25.963329 196.398544,27.085239 
	C196.502579,26.201992 196.912064,25.171309 197.680939,24.077499 
z"/>
<path fill="#020305" opacity="1.000000" stroke="none" 
	d="
M200.646194,19.087622 
	C200.593384,20.048918 200.165695,21.089357 199.452499,22.319096 
	C199.535095,21.394518 199.903214,20.280643 200.646194,19.087622 
z"/>
<path fill="#020306" opacity="1.000000" stroke="none" 
	d="
M58.764961,17.094294 
	C58.638241,17.996511 58.146992,18.943001 57.364342,20.036110 
	C57.515434,19.168007 57.957935,18.153286 58.764961,17.094294 
z"/>
<path fill="#A9C6E9" opacity="1.000000" stroke="none" 
	d="
M208.844604,72.592072 
	C208.615524,71.811440 208.492630,70.644989 208.585876,69.251328 
	C208.851624,70.084824 208.901215,71.145538 208.844604,72.592072 
z"/>
<path fill="#E3E6E9" opacity="1.000000" stroke="none" 
	d="
M51.796986,86.855072 
	C51.801243,87.780441 51.627789,88.292664 51.454338,88.804886 
	C51.013638,88.459564 50.572933,88.114243 50.132225,87.768929 
	C50.627907,87.326591 51.123592,86.884254 51.796986,86.855072 
z"/>
<path fill="#020306" opacity="1.000000" stroke="none" 
	d="
M71.005203,36.625874 
	C70.591408,36.257854 70.175247,35.540771 69.703407,34.505142 
	C70.099426,34.883331 70.551125,35.580074 71.005203,36.625874 
z"/>
<path fill="#060A13" opacity="1.000000" stroke="none" 
	d="
M195.791931,78.175369 
	C196.004929,78.384918 195.964188,78.756081 195.675537,79.470169 
	C195.427643,79.813087 195.000229,80.003090 195.000229,80.003090 
	C195.179550,79.447716 195.358871,78.892349 195.791931,78.175369 
z"/>
<path fill="#3AA5E9" opacity="1.000000" stroke="none" 
	d="
M95.055298,217.336609 
	C95.487595,217.263107 96.071236,217.463440 96.793991,217.951294 
	C96.357613,218.029358 95.782127,217.819885 95.055298,217.336609 
z"/>
<path fill="#3AA5E9" opacity="1.000000" stroke="none" 
	d="
M93.134216,216.272186 
	C93.548134,216.197388 94.104988,216.390076 94.815392,216.843887 
	C94.405006,216.916580 93.841080,216.728134 93.134216,216.272186 
z"/>
<path fill="#020306" opacity="1.000000" stroke="none" 
	d="
M66.907806,28.892155 
	C66.553589,28.733393 66.196365,28.242323 65.799057,27.430080 
	C66.140923,27.592558 66.522865,28.076202 66.907806,28.892155 
z"/>
<path fill="#47A1DC" opacity="1.000000" stroke="none" 
	d="
M181.333221,203.939636 
	C181.203247,203.490341 181.364670,202.919174 181.777786,202.176910 
	C181.894547,202.609802 181.759598,203.213776 181.333221,203.939636 
z"/>
<path fill="#020306" opacity="1.000000" stroke="none" 
	d="
M67.853973,30.932919 
	C67.646515,30.952547 67.396461,30.740864 67.168335,30.273018 
	C67.480736,30.169432 67.687767,30.397680 67.853973,30.932919 
z"/>
<path fill="#070C1A" opacity="1.000000" stroke="none" 
	d="
M207.324066,78.005417 
	C207.190842,77.670113 207.283981,77.330307 207.631775,76.875137 
	C207.916763,76.965950 207.947098,77.172134 207.988708,77.689163 
	C208.000000,78.000000 208.003220,77.995773 208.003220,77.995773 
	C208.003220,77.995773 207.550446,78.000916 207.324066,78.005417 
z"/>
<path fill="#070C1A" opacity="1.000000" stroke="none" 
	d="
M207.997894,78.001633 
	C208.111450,78.135361 208.227097,78.267441 208.342758,78.399529 
	C208.263596,78.352013 208.184433,78.304504 208.054245,78.126381 
	C208.003220,77.995773 208.000000,78.000000 207.997894,78.001633 
z"/>
<path fill="#020305" opacity="1.000000" stroke="none" 
	d="
M194.542572,25.473347 
	C194.569901,25.521667 194.515244,25.425026 194.542572,25.473347 
z"/>
<path fill="#020306" opacity="1.000000" stroke="none" 
	d="
M65.815765,26.971367 
	C65.598824,26.988419 65.350441,26.764099 65.127586,26.276638 
	C65.455818,26.171017 65.666222,26.409847 65.815765,26.971367 
z"/>
<path fill="#A9C6E9" opacity="1.000000" stroke="none" 
	d="
M208.881760,65.781395 
	C208.501038,65.786102 208.373627,65.503792 208.552643,64.942253 
	C208.911942,64.973442 209.003952,65.250549 208.881760,65.781395 
z"/>
<path fill="#020306" opacity="1.000000" stroke="none" 
	d="
M72.840088,40.098099 
	C72.628937,40.098942 72.386398,39.836491 72.153442,39.296322 
	C72.378242,39.290672 72.593468,39.562737 72.840088,40.098099 
z"/>
<path fill="#A9C6E9" opacity="1.000000" stroke="none" 
	d="
M188.331940,80.594826 
	C188.145523,80.660133 187.882233,80.481163 187.746155,80.155624 
	C188.000626,80.122887 188.127869,80.236717 188.331940,80.594826 
z"/>
<path fill="#060A13" opacity="1.000000" stroke="none" 
	d="
M193.308167,69.848457 
	C193.201294,69.663139 193.298111,69.330307 193.655701,68.899506 
	C193.781616,69.101334 193.646744,69.401138 193.308167,69.848457 
z"/>
<path fill="#A9C6E9" opacity="1.000000" stroke="none" 
	d="
M195.000458,80.251221 
	C195.000229,80.003090 195.427643,79.813087 195.653366,79.751930 
	C195.736328,80.024307 195.593567,80.357841 195.217499,80.843353 
	C194.984177,80.995323 195.000671,80.499344 195.000458,80.251221 
z"/>
<path fill="#020305" opacity="1.000000" stroke="none" 
	d="
M194.657837,30.152060 
	C194.758621,30.329020 194.666687,30.649141 194.315735,31.059444 
	C194.097992,30.819481 194.234116,30.534678 194.657837,30.152060 
z"/>
<path fill="#070C1A" opacity="1.000000" stroke="none" 
	d="
M204.236954,83.833771 
	C204.110016,83.633369 204.217224,83.266304 204.578766,82.753067 
	C204.712433,82.960297 204.591766,83.313705 204.236954,83.833771 
z"/>
<path fill="#020306" opacity="1.000000" stroke="none" 
	d="
M73.849144,41.914337 
	C73.637207,41.947285 73.363846,41.744652 73.096848,41.274994 
	C73.409996,41.151356 73.638161,41.374954 73.849144,41.914337 
z"/>
<path fill="#060A13" opacity="1.000000" stroke="none" 
	d="
M197.677277,75.152237 
	C197.781921,75.333969 197.685349,75.662720 197.334900,76.092361 
	C197.094910,75.843201 197.226593,75.545204 197.677277,75.152237 
z"/>
<path fill="#1A34C0" opacity="1.000000" stroke="none" 
	d="
M129.967926,195.563721 
	C142.999130,184.030121 155.786880,172.743881 168.585800,161.470322 
	C170.445663,159.832123 172.359055,158.254715 174.559082,156.861618 
	C174.385513,165.534256 172.391830,173.555542 167.644958,181.028320 
	C162.811874,185.891235 158.283218,190.590256 153.561798,195.298050 
	C153.369049,195.306808 153.050690,195.524902 152.706818,195.591400 
	C152.198441,196.091553 152.033920,196.525192 151.526947,197.123398 
	C140.419479,200.990768 129.474030,203.067078 117.767227,200.767288 
	C113.341217,199.014099 109.212708,197.455582 104.949570,195.574585 
	C104.036537,194.555222 103.215332,193.900131 102.486870,193.154434 
	C98.560585,189.135345 94.657303,185.093781 90.659485,180.734894 
	C89.663872,178.379318 88.754883,176.348846 87.827614,174.064209 
	C87.613831,173.538651 87.418327,173.267242 87.129822,172.768555 
	C87.036819,172.541275 86.996788,172.051758 87.002563,171.634003 
	C86.510597,168.489639 85.815041,165.777084 85.619835,163.028976 
	C85.549210,162.034805 86.676941,160.955505 87.257843,159.915054 
	C87.549652,159.909637 87.787636,160.020142 88.115929,160.779114 
	C89.831238,162.541733 91.402412,163.771790 92.973579,165.001831 
	C103.335175,173.956512 113.675377,182.936188 124.079330,191.841354 
	C125.820442,193.331635 127.838181,194.498734 129.967926,195.563721 
z"/>
<path fill="#39A6EA" opacity="1.000000" stroke="none" 
	d="
M100.913055,92.974480 
	C119.571777,85.376877 138.110779,84.672607 156.991104,93.062729 
	C156.038208,96.314331 156.510757,98.948135 158.907074,101.267715 
	C159.594208,101.932838 160.081131,102.841339 160.536850,103.703262 
	C164.582687,111.355286 163.816284,113.254341 155.032166,115.799133 
	C150.165466,114.113014 146.082870,111.798058 141.720413,110.985382 
	C137.533081,110.205299 134.446899,109.241119 133.147842,104.747833 
	C132.398117,102.154594 130.908707,99.775200 129.329178,96.393974 
	C127.802177,99.552132 126.946259,101.897850 125.607483,103.924622 
	C124.342415,105.839783 122.569931,107.419769 120.617081,109.086929 
	C117.379509,109.777214 113.931763,109.756927 111.831520,111.429100 
	C106.464111,115.702522 101.161331,116.786018 95.060699,113.156013 
	C97.070679,107.214386 99.091026,101.655441 101.111374,96.096497 
	C101.471252,96.256119 101.831131,96.415749 102.191002,96.575371 
	C101.635109,95.411942 101.079216,94.248520 100.523323,93.085091 
	C100.523323,93.085091 100.774467,92.966866 100.913055,92.974480 
z"/>
<path fill="#AFCEF6" opacity="1.000000" stroke="none" 
	d="
M100.222755,93.168716 
	C101.079216,94.248520 101.635109,95.411942 102.191002,96.575371 
	C101.831131,96.415749 101.471252,96.256119 101.111374,96.096497 
	C99.091026,101.655441 97.070679,107.214386 95.032700,113.607010 
	C96.264694,117.941673 97.514313,121.442642 98.884308,125.279816 
	C103.690308,130.227219 108.375931,134.838409 113.061546,139.449600 
	C116.890991,147.934464 120.720444,156.419327 124.549896,164.904190 
	C124.004051,165.321259 123.458214,165.738327 122.912376,166.155380 
	C120.296028,164.126358 117.520935,162.270050 115.091576,160.037537 
	C105.933884,151.621948 96.148575,143.729935 88.012077,134.407867 
	C80.073006,125.312004 78.820786,114.029213 83.666000,102.246841 
	C88.009361,100.849129 88.009361,100.849129 91.819237,92.894592 
	C93.586487,94.487923 95.423607,96.144241 97.661705,98.162079 
	C98.638351,96.040825 99.280266,94.646576 100.222755,93.168716 
z"/>
<path fill="#1B35BD" opacity="1.000000" stroke="none" 
	d="
M113.376602,139.277863 
	C108.375931,134.838409 103.690308,130.227219 98.909286,124.910988 
	C101.466858,122.091377 104.119812,119.976807 107.173836,117.903603 
	C108.651642,117.199242 109.728378,116.453506 110.843796,115.738129 
	C110.882477,115.768486 110.799377,115.821053 111.198868,115.876617 
	C113.095581,115.188553 114.592812,114.444908 116.127831,113.661346 
	C116.165611,113.621429 116.274086,113.639198 116.746765,113.725983 
	C119.444946,113.615532 121.696251,113.122948 123.887779,113.314438 
	C125.644226,113.467926 127.328102,114.451820 129.044189,115.067184 
	C129.044189,115.067184 129.013046,114.997124 128.697784,115.070435 
	C128.014694,115.865715 127.646889,116.587692 127.279083,117.309662 
	C127.279083,117.309662 127.216408,117.153748 126.980591,117.256851 
	C126.529091,117.953636 126.313416,118.547333 126.097740,119.141029 
	C121.962379,125.796059 117.827019,132.451096 113.376602,139.277863 
z"/>
<path fill="#AFCCF5" opacity="1.000000" stroke="none" 
	d="
M145.995255,139.092056 
	C143.351059,143.813644 140.545090,148.453491 138.106766,153.279099 
	C135.506363,158.425461 133.253418,163.747391 129.972580,168.886169 
	C129.972580,151.552490 129.972580,134.218796 130.214111,116.504211 
	C130.455627,116.123329 130.893997,116.266075 131.061890,116.555023 
	C133.196976,120.201981 135.006973,123.665398 137.170563,126.891716 
	C139.964264,131.057663 143.040619,135.034042 145.995255,139.092056 
z"/>
<path fill="#1A35BF" opacity="1.000000" stroke="none" 
	d="
M146.225098,138.845001 
	C143.040619,135.034042 139.964264,131.057663 137.170563,126.891716 
	C135.006973,123.665398 133.196976,120.201981 131.139374,116.180954 
	C133.206512,114.910202 135.407440,113.685089 137.511902,113.832947 
	C141.068222,114.082832 144.563507,115.201599 148.051254,115.969284 
	C148.018051,115.983536 148.014923,115.911346 148.173706,116.182327 
	C148.922256,116.617287 149.512054,116.781258 150.065338,116.956436 
	C150.028824,116.967636 150.019257,116.891861 150.171722,117.162773 
	C150.903671,117.611336 151.483139,117.788986 152.036057,117.984306 
	C152.009506,118.001984 152.027924,117.940918 152.092010,118.313568 
	C153.233551,119.084511 154.311005,119.482819 155.388474,119.881126 
	C156.675140,121.111969 157.961807,122.342812 160.066971,124.356636 
	C155.462463,129.173996 150.958694,133.885971 146.225098,138.845001 
z"/>
<path fill="#E8F9FE" opacity="1.000000" stroke="none" 
	d="
M121.020630,109.147179 
	C122.569931,107.419769 124.342415,105.839783 125.607483,103.924622 
	C126.946259,101.897850 127.802177,99.552132 129.329178,96.393974 
	C130.908707,99.775200 132.398117,102.154594 133.147842,104.747833 
	C134.446899,109.241119 137.533081,110.205299 141.720413,110.985382 
	C146.082870,111.798058 150.165466,114.113014 154.684631,115.934563 
	C154.997070,116.830414 154.995285,117.562828 154.675018,118.599701 
	C153.580322,118.583084 152.804123,118.262001 152.027924,117.940918 
	C152.027924,117.940918 152.009506,118.001984 151.885132,117.715332 
	C151.180252,117.249733 150.599747,117.070793 150.019257,116.891861 
	C150.019257,116.891861 150.028824,116.967636 149.902008,116.692764 
	C149.188431,116.249046 148.601669,116.080193 148.014923,115.911346 
	C148.014923,115.911346 148.018051,115.983536 147.835754,115.671631 
	C140.750885,114.117203 133.848297,112.874664 126.714722,111.428345 
	C125.337105,111.389015 124.190460,111.553459 122.713493,111.831284 
	C121.921394,111.938011 121.459610,111.931351 120.995995,111.577370 
	C121.002975,110.535759 121.011803,109.841469 121.020630,109.147179 
z"/>
<path fill="#162AA1" opacity="1.000000" stroke="none" 
	d="
M126.945702,111.632126 
	C133.848297,112.874664 140.750885,114.117203 147.868958,115.657379 
	C144.563507,115.201599 141.068222,114.082832 137.511902,113.832947 
	C135.407440,113.685089 133.206512,114.910202 130.971481,115.892006 
	C130.893997,116.266075 130.455627,116.123329 130.243683,116.032715 
	C129.868576,115.665405 129.705429,115.388725 129.293243,115.089615 
	C127.328102,114.451820 125.644226,113.467926 123.887779,113.314438 
	C121.696251,113.122948 119.444946,113.615532 117.053596,113.522110 
	C118.257774,112.795868 119.627800,112.360275 120.997833,111.924690 
	C121.459610,111.931351 121.921394,111.938011 123.101181,111.885117 
	C124.861359,111.761086 125.903526,111.696609 126.945702,111.632126 
z"/>
<path fill="#CFECFD" opacity="1.000000" stroke="none" 
	d="
M87.845886,174.318359 
	C88.754883,176.348846 89.663872,178.379318 90.426193,180.862549 
	C89.808899,181.559174 89.338280,181.803024 88.867661,182.046875 
	C86.942741,178.269562 85.017822,174.492264 83.086815,170.348755 
	C83.635902,169.761459 84.191078,169.540344 85.132889,169.294830 
	C86.011932,170.197556 86.504364,171.124649 86.996788,172.051758 
	C86.996788,172.051758 87.036819,172.541275 87.117401,173.033844 
	C87.413948,173.790375 87.629921,174.054367 87.845886,174.318359 
z"/>
<path fill="#AFCBEE" opacity="1.000000" stroke="none" 
	d="
M191.747833,57.273300 
	C194.127029,63.455173 187.775299,65.610443 185.292099,69.911850 
	C187.117126,65.789742 189.294830,61.626873 191.747833,57.273300 
z"/>
<path fill="#283CA1" opacity="1.000000" stroke="none" 
	d="
M87.002563,171.634003 
	C86.504364,171.124649 86.011932,170.197556 85.298164,169.032471 
	C84.374512,165.067841 83.672203,161.341171 82.723892,156.309128 
	C84.760605,157.762421 85.836304,158.529984 87.084923,159.606293 
	C86.676941,160.955505 85.549210,162.034805 85.619835,163.028976 
	C85.815041,165.777084 86.510597,168.489639 87.002563,171.634003 
z"/>
<path fill="#AFCBEE" opacity="1.000000" stroke="none" 
	d="
M182.712433,73.173210 
	C181.884689,75.278801 180.785782,77.580566 179.337738,79.938126 
	C180.139481,77.785736 181.290359,75.577560 182.712433,73.173210 
z"/>
<path fill="#283CA1" opacity="1.000000" stroke="none" 
	d="
M92.841415,164.702026 
	C91.402412,163.771790 89.831238,162.541733 88.184402,160.969727 
	C89.642250,161.885925 91.175751,163.144073 92.841415,164.702026 
z"/>
<path fill="#AFCBEE" opacity="1.000000" stroke="none" 
	d="
M195.641830,51.100067 
	C197.741837,52.892044 196.890945,53.728531 194.274872,53.975098 
	C194.398590,53.069397 194.885635,52.167553 195.641830,51.100067 
z"/>
<path fill="#162AA1" opacity="1.000000" stroke="none" 
	d="
M152.092010,118.313568 
	C152.804123,118.262001 153.580322,118.583084 154.671356,118.965942 
	C154.986176,119.027710 155.195755,119.450508 155.292114,119.665817 
	C154.311005,119.482819 153.233551,119.084511 152.092010,118.313568 
z"/>
<path fill="#AFCBEE" opacity="1.000000" stroke="none" 
	d="
M184.666321,70.097626 
	C184.522552,70.928703 184.094788,71.904129 183.319107,72.931969 
	C183.441574,72.070244 183.911957,71.156113 184.666321,70.097626 
z"/>
<path fill="#162AA1" opacity="1.000000" stroke="none" 
	d="
M127.526367,117.150345 
	C127.646889,116.587692 128.014694,115.865715 128.726547,115.095810 
	C128.638275,115.695595 128.205963,116.343307 127.526367,117.150345 
z"/>
<path fill="#162AA1" opacity="1.000000" stroke="none" 
	d="
M126.366852,118.990135 
	C126.313416,118.547333 126.529091,117.953636 127.064575,117.259338 
	C127.134903,117.718903 126.885429,118.279076 126.366852,118.990135 
z"/>
<path fill="#AFCBEE" opacity="1.000000" stroke="none" 
	d="
M178.786316,80.098267 
	C178.899460,80.298531 178.724380,80.553329 178.266403,80.866379 
	C178.139893,80.658882 178.311432,80.401596 178.786316,80.098267 
z"/>
<path fill="#E0F7FE" opacity="1.000000" stroke="none" 
	d="
M167.949402,180.864441 
	C172.391830,173.555542 174.385513,165.534256 174.796722,156.665039 
	C176.690552,154.962402 178.658112,153.668793 180.814667,152.172150 
	C183.561798,153.403519 186.119949,154.837906 189.496887,156.731415 
	C187.050583,157.966797 185.305420,159.217621 183.362869,159.755539 
	C178.690155,161.049454 176.602295,164.342392 175.201477,168.649567 
	C173.700104,173.266068 171.749359,177.736420 169.603363,182.573074 
	C168.791107,182.205200 168.370255,181.534821 167.949402,180.864441 
z"/>
<path fill="#AFCBEE" opacity="1.000000" stroke="none" 
	d="
M199.533798,57.010830 
	C198.784393,59.190498 197.661697,61.382389 196.257568,63.757687 
	C197.037598,61.635078 198.099060,59.329063 199.533798,57.010830 
z"/>
<path fill="#A9C6E9" opacity="1.000000" stroke="none" 
	d="
M192.800003,85.441704 
	C192.919800,84.465057 193.181717,83.828239 193.682098,83.086884 
	C194.469467,83.840019 195.018372,84.697701 195.567291,85.555382 
	C194.692230,85.630768 193.817184,85.706154 192.800003,85.441704 
z"/>
<path fill="#A9C6E9" opacity="1.000000" stroke="none" 
	d="
M201.221146,70.934250 
	C201.339523,70.041100 201.795288,69.128998 202.526535,68.069412 
	C202.387527,68.919716 201.973022,69.917496 201.221146,70.934250 
z"/>
<path fill="#A9C6E9" opacity="1.000000" stroke="none" 
	d="
M195.346039,97.060150 
	C195.740585,98.696541 195.861984,100.416031 195.907349,102.560135 
	C195.578506,101.037582 195.325714,99.090408 195.346039,97.060150 
z"/>
<path fill="#A9C6E9" opacity="1.000000" stroke="none" 
	d="
M189.021713,82.275215 
	C189.342728,82.443130 189.673492,82.913704 190.013992,83.688057 
	C189.692963,83.520523 189.362198,83.049202 189.021713,82.275215 
z"/>
<path fill="#D8DADC" opacity="1.000000" stroke="none" 
	d="
M149.743301,64.981636 
	C150.247040,67.446274 148.999603,68.798325 146.826401,67.900940 
	C142.668564,66.184044 137.675751,70.548035 134.211655,65.912247 
	C134.086304,65.744492 136.028610,63.193432 137.100861,63.120049 
	C140.911682,62.859226 144.763046,63.190845 148.877289,63.822105 
	C149.287201,64.617378 149.483124,64.829216 149.743301,64.981636 
M146.480469,65.091492 
	C146.249710,65.232155 146.018967,65.372826 145.788208,65.513489 
	C146.026520,65.643944 146.337234,65.933701 146.485611,65.866264 
	C146.690781,65.773018 146.773682,65.410751 146.480469,65.091492 
z"/>
<path fill="#DCDDE4" opacity="1.000000" stroke="none" 
	d="
M144.982803,77.684196 
	C143.508408,77.613853 142.033997,77.543510 140.392212,76.939392 
	C140.099625,75.464188 139.974442,74.522758 139.849258,73.581329 
	C144.428131,73.321320 149.007019,73.061317 153.596680,72.800705 
	C153.596680,74.666618 153.596680,75.975494 153.596680,78.009521 
	C151.725128,77.697578 149.738022,77.366371 147.328125,76.627075 
	C146.449509,75.981117 145.993683,75.743240 145.537857,75.505371 
	C145.352844,76.231644 145.167831,76.957924 144.982803,77.684196 
z"/>
<path fill="#CBCDD2" opacity="1.000000" stroke="none" 
	d="
M115.520752,47.979031 
	C115.106552,43.773136 118.079628,41.276451 121.485718,43.575550 
	C124.749741,45.778740 126.939667,45.371540 129.888351,44.117554 
	C130.091141,44.606842 130.006378,44.984695 130.006378,44.984695 
	C127.715981,48.941952 125.745857,48.935215 121.621155,46.299755 
	C120.531693,45.603645 117.870590,47.367275 115.520752,47.979031 
z"/>
<path fill="#D8DADC" opacity="1.000000" stroke="none" 
	d="
M115.978561,64.339912 
	C117.511856,63.889812 119.019089,63.222626 120.583862,63.034843 
	C123.833694,62.644852 125.757263,63.764923 124.510910,68.393539 
	C121.963882,67.776604 119.393066,67.153900 116.380112,66.272400 
	C115.951508,65.455696 115.965034,64.897804 115.978561,64.339912 
z"/>
<path fill="#D5D6DC" opacity="1.000000" stroke="none" 
	d="
M112.563026,53.034157 
	C114.254730,54.303188 115.503143,55.591599 116.751556,56.880009 
	C116.233574,57.282822 115.715599,57.685638 115.197624,58.088451 
	C114.506485,57.072823 113.815353,56.057198 112.859344,54.652340 
	C112.150513,55.939137 111.595131,56.947365 110.736115,58.506802 
	C110.160324,56.988205 109.801048,56.040661 109.159576,54.348835 
	C107.925934,55.757904 107.009384,56.804783 106.096619,57.846237 
	C104.448296,53.799946 104.968628,52.913219 108.905617,53.028309 
	C109.976326,53.059612 111.048325,53.046349 112.563026,53.034157 
z"/>
<path fill="#DDE0E3" opacity="1.000000" stroke="none" 
	d="
M121.117737,58.015869 
	C119.445938,57.144501 118.211746,56.273540 116.977547,55.402584 
	C119.315033,54.357578 121.652512,53.312565 124.220924,52.164314 
	C125.446533,56.342667 125.423279,58.456181 121.117737,58.015869 
z"/>
<path fill="#CBCDD2" opacity="1.000000" stroke="none" 
	d="
M112.957588,76.605240 
	C110.281082,77.164406 107.604576,77.723572 104.107712,78.454124 
	C104.218758,76.414253 104.152336,73.930946 104.386803,73.902214 
	C106.647476,73.625092 108.958778,73.760979 111.646538,74.223465 
	C112.344177,75.313866 112.650879,75.959557 112.957588,76.605240 
z"/>
<path fill="#E3E5EC" opacity="1.000000" stroke="none" 
	d="
M130.005646,45.391209 
	C130.006378,44.984695 130.091141,44.606842 130.023895,44.425270 
	C132.566101,44.068737 135.175522,43.893776 138.088379,43.982330 
	C138.163605,44.360184 138.042313,44.555737 138.027649,44.958065 
	C137.548019,46.057884 136.871613,47.922775 136.620102,47.867130 
	C134.372452,47.369820 132.199692,46.533943 130.005646,45.391209 
z"/>
<path fill="#D3D4DB" opacity="1.000000" stroke="none" 
	d="
M113.286842,76.850441 
	C112.650879,75.959557 112.344177,75.313866 112.022026,74.397575 
	C117.906967,71.677361 119.782066,72.471832 119.642754,78.125114 
	C117.585564,77.773705 115.600830,77.434677 113.286842,76.850441 
z"/>
<path fill="#E2E3E7" opacity="1.000000" stroke="none" 
	d="
M115.744919,63.991257 
	C115.965034,64.897804 115.951508,65.455696 115.957184,66.292091 
	C113.787086,67.438637 111.597786,68.306679 109.164948,69.271271 
	C109.164948,67.085159 109.164948,65.310532 109.164948,62.881329 
	C111.427963,63.152786 113.469612,63.397694 115.744919,63.991257 
z"/>
<path fill="#D8DADE" opacity="1.000000" stroke="none" 
	d="
M99.385559,47.849758 
	C98.958824,46.792847 98.933914,45.909607 98.946823,44.696285 
	C101.467949,43.458336 104.183083,40.617500 106.107574,45.606453 
	C104.067963,46.677475 101.927673,47.350452 99.385559,47.849758 
z"/>
<path fill="#E1E2E7" opacity="1.000000" stroke="none" 
	d="
M125.967041,65.900620 
	C127.860947,64.346077 129.810135,63.218624 132.524368,61.648636 
	C132.823532,64.441086 132.970642,65.814140 133.261215,68.526352 
	C130.416458,67.662315 128.219391,66.995003 125.967041,65.900620 
z"/>
<path fill="#D8DADE" opacity="1.000000" stroke="none" 
	d="
M129.864899,56.041821 
	C128.436691,56.627872 127.413803,57.234402 126.256264,57.920773 
	C126.256264,55.546429 126.256264,53.357510 126.256264,51.168587 
	C128.100586,53.862255 129.774231,55.813766 132.743515,51.347466 
	C132.743515,54.137684 132.743515,55.940670 132.743515,58.374252 
	C131.606186,57.311123 130.938202,56.686710 129.864899,56.041821 
z"/>
<path fill="#DDE0E3" opacity="1.000000" stroke="none" 
	d="
M106.896049,46.380638 
	C108.356079,45.053280 109.894806,43.765976 111.636620,43.368416 
	C112.110893,43.260162 113.196777,45.831535 113.960327,47.571163 
	C111.629517,47.564655 109.340355,47.160103 106.896049,46.380638 
z"/>
<path fill="#D3D4DB" opacity="1.000000" stroke="none" 
	d="
M139.574738,73.713226 
	C139.974442,74.522758 140.099625,75.464188 140.116119,76.684677 
	C139.215866,76.626892 138.424286,76.290054 137.824692,76.034912 
	C138.020157,75.744820 138.660202,74.794968 139.574738,73.713226 
z"/>
<path fill="#D3D4DB" opacity="1.000000" stroke="none" 
	d="
M145.272705,77.721222 
	C145.167831,76.957924 145.352844,76.231644 145.537857,75.505371 
	C145.993683,75.743240 146.449509,75.981117 146.956757,76.510498 
	C146.526321,77.120750 146.044464,77.439491 145.272705,77.721222 
z"/>
<path fill="#D3D4DB" opacity="1.000000" stroke="none" 
	d="
M149.821960,64.725540 
	C149.483124,64.829216 149.287201,64.617378 149.089401,64.137329 
	C149.315720,64.108849 149.608154,64.289146 149.821960,64.725540 
z"/>
<path fill="#E9F5FE" opacity="1.000000" stroke="none" 
	d="
M88.862823,182.426544 
	C89.338280,181.803024 89.808899,181.559174 90.512802,181.187637 
	C94.657303,185.093781 98.560585,189.135345 102.486870,193.154434 
	C103.215332,193.900131 104.036537,194.555222 104.774330,195.826706 
	C103.837250,196.834366 102.940781,197.267441 102.044312,197.700516 
	C99.189217,198.796295 96.334129,199.892090 92.792725,201.267090 
	C89.680084,202.615234 87.253761,203.684158 84.827438,204.753082 
	C84.827438,204.753082 84.724907,204.592758 84.631073,204.565140 
	C83.578033,204.632721 82.618828,204.727936 80.810181,204.907440 
	C83.608353,197.222977 86.233162,190.014587 88.862823,182.426544 
z"/>
<path fill="#E9F4FE" opacity="1.000000" stroke="none" 
	d="
M167.644974,181.028320 
	C168.370255,181.534821 168.791107,182.205200 169.525604,182.934998 
	C169.888641,183.154724 169.938019,183.315063 169.992004,184.135864 
	C171.285309,187.863876 172.573990,190.931412 173.862686,193.998962 
	C175.068558,197.171463 176.274414,200.343964 177.727356,203.779602 
	C177.207397,204.292419 176.440369,204.542099 175.340302,204.784485 
	C175.007278,204.777176 174.772217,204.690506 174.429901,204.468735 
	C169.074783,202.446381 164.061981,200.645798 159.049179,198.845215 
	C159.049179,198.845215 159.030396,198.932449 158.845367,198.651596 
	C157.117813,197.950043 155.575272,197.529327 153.971344,196.652557 
	C153.858154,195.894089 153.806366,195.591690 153.754562,195.289291 
	C158.283218,190.590256 162.811874,185.891235 167.644974,181.028320 
z"/>
<path fill="#E9FAFE" opacity="1.000000" stroke="none" 
	d="
M153.561798,195.298050 
	C153.806366,195.591690 153.858154,195.894089 153.794296,196.913818 
	C152.683792,198.370163 151.688950,199.109146 150.694122,199.848129 
	C146.145050,201.401947 140.932236,202.054047 137.239944,204.771851 
	C133.783951,207.315674 131.939224,212.048538 129.150696,216.164459 
	C126.003670,211.153793 124.957024,203.536469 116.468719,202.585510 
	C116.796982,201.757050 117.430862,201.359512 118.064743,200.961975 
	C129.474030,203.067078 140.419479,200.990768 151.808533,196.966248 
	C152.638611,196.271317 152.844650,195.898117 153.050690,195.524902 
	C153.050690,195.524902 153.369049,195.306808 153.561798,195.298050 
z"/>
<path fill="#C9EBFD" opacity="1.000000" stroke="none" 
	d="
M117.767235,200.767303 
	C117.430862,201.359512 116.796982,201.757050 116.113754,202.449646 
	C111.644600,201.076431 107.224815,199.408142 102.424667,197.720184 
	C102.940781,197.267441 103.837250,196.834366 104.908958,196.149170 
	C109.212708,197.455582 113.341217,199.014099 117.767235,200.767303 
z"/>
<path fill="#47A1DC" opacity="1.000000" stroke="none" 
	d="
M159.227066,199.155365 
	C164.061981,200.645798 169.074783,202.446381 174.330261,204.544647 
	C169.516937,203.050049 164.460938,201.257797 159.227066,199.155365 
z"/>
<path fill="#3AA5E9" opacity="1.000000" stroke="none" 
	d="
M85.224960,204.792084 
	C87.253761,203.684158 89.680084,202.615234 92.485916,201.459503 
	C90.451111,202.525497 88.036797,203.678284 85.224960,204.792084 
z"/>
<path fill="#47A1DC" opacity="1.000000" stroke="none" 
	d="
M151.120483,199.884521 
	C151.688950,199.109146 152.683792,198.370163 153.855682,197.369904 
	C155.575272,197.529327 157.117813,197.950043 158.886322,198.633881 
	C156.590469,199.238297 154.068649,199.579605 151.120483,199.884521 
z"/>
<path fill="#E0F7FE" opacity="1.000000" stroke="none" 
	d="
M173.850433,193.632156 
	C172.573990,190.931412 171.285309,187.863876 170.004105,184.387207 
	C171.287125,187.073853 172.562668,190.169601 173.850433,193.632156 
z"/>
<path fill="#283CA1" opacity="1.000000" stroke="none" 
	d="
M87.827621,174.064209 
	C87.629921,174.054367 87.413948,173.790375 87.210403,173.261108 
	C87.418327,173.267242 87.613831,173.538651 87.827621,174.064209 
z"/>
<path fill="#E9F4FE" opacity="1.000000" stroke="none" 
	d="
M152.706818,195.591400 
	C152.844650,195.898117 152.638611,196.271317 152.150986,196.801682 
	C152.033920,196.525192 152.198441,196.091553 152.706818,195.591400 
z"/>
<path fill="#D4EDFE" opacity="1.000000" stroke="none" 
	d="
M120.995995,111.577370 
	C119.627800,112.360275 118.257774,112.795868 116.580917,113.435326 
	C116.274086,113.639198 116.165611,113.621429 115.757858,113.670212 
	C113.833191,114.419678 112.316284,115.120369 110.799377,115.821060 
	C110.799377,115.821053 110.882477,115.768486 110.511757,115.788353 
	C109.018280,116.492889 107.895531,117.177567 106.772766,117.862228 
	C104.119812,119.976807 101.466858,122.091377 98.788918,124.574783 
	C97.514313,121.442642 96.264694,117.941673 95.043076,113.989700 
	C101.161331,116.786018 106.464111,115.702522 111.831520,111.429100 
	C113.931763,109.756927 117.379509,109.777214 120.617081,109.086929 
	C121.011803,109.841469 121.002975,110.535759 120.995995,111.577370 
z"/>
<path fill="#162AA1" opacity="1.000000" stroke="none" 
	d="
M111.198868,115.876625 
	C112.316284,115.120369 113.833191,114.419678 115.720078,113.710129 
	C114.592812,114.444908 113.095581,115.188553 111.198868,115.876625 
z"/>
<path fill="#162AA1" opacity="1.000000" stroke="none" 
	d="
M107.173843,117.903610 
	C107.895531,117.177567 109.018280,116.492889 110.473083,115.757996 
	C109.728378,116.453506 108.651642,117.199242 107.173843,117.903610 
z"/>
<path fill="#162AA1" opacity="1.000000" stroke="none" 
	d="
M150.171722,117.162773 
	C150.599747,117.070793 151.180252,117.249733 151.911682,117.697647 
	C151.483139,117.788986 150.903671,117.611336 150.171722,117.162773 
z"/>
<path fill="#162AA1" opacity="1.000000" stroke="none" 
	d="
M148.173706,116.182327 
	C148.601669,116.080193 149.188431,116.249046 149.938507,116.681564 
	C149.512054,116.781258 148.922256,116.617287 148.173706,116.182327 
z"/>
<path fill="#D4EDFE" opacity="1.000000" stroke="none" 
	d="
M126.714722,111.428352 
	C125.903526,111.696609 124.861359,111.761086 123.431503,111.771729 
	C124.190460,111.553459 125.337105,111.389015 126.714722,111.428352 
z"/>
<path fill="#D3D4DB" opacity="1.000000" stroke="none" 
	d="
M146.694702,65.127594 
	C146.773682,65.410751 146.690781,65.773018 146.485611,65.866264 
	C146.337234,65.933701 146.026520,65.643944 145.788208,65.513489 
	C146.018967,65.372826 146.249710,65.232155 146.694702,65.127594 
z"/>
</svg>